<?xml version="1.0" encoding="UTF-8"?><svg id="a" xmlns="http://www.w3.org/2000/svg" viewBox="0 0 1937.14 2612.74"><defs><style>.c{fill:none;fill-rule:evenodd;stroke:#000;stroke-miterlimit:10;stroke-width:19px;}</style></defs><polygon class="c" points="699.24 1159.91 1252 971.97 1260 1646.97 671 1458.97 671 1166.24 699.24 1159.91"/><polygon class="c" points="654.68 1131.89 1304.1 904.97 1313.5 1719.97 621.5 1492.98 621.5 1139.53 654.68 1131.89"/><polygon class="c" points="605.28 1092.37 1344.8 823.97 1355.5 1787.97 567.5 1519.48 567.5 1101.41 605.28 1092.37"/><polygon class="c" points="561.17 1055.25 1396.41 743.97 1408.5 1861.97 518.5 1550.59 518.5 1065.73 561.17 1055.25"/><polygon class="c" points="519.92 1016.52 1448.07 660.97 1461.5 1937.97 472.5 1582.31 472.5 1028.49 519.92 1016.52"/><polygon class="c" points="463.9 972.34 1489.65 571.97 1504.5 2009.97 411.5 1609.46 411.5 985.83 463.9 972.34"/><polygon class="c" points="416.51 936.45 1552.07 490.97 1568.5 2090.97 358.5 1645.34 358.5 951.45 416.51 936.45"/><polygon class="c" points="361.93 905.01 1603.53 417.97 1621.5 2167.25 298.5 1680.04 298.5 921.41 361.93 905.01"/><polygon class="c" points="299.07 871.27 1660.79 331.97 1680.5 2268.97 229.5 1729.48 229.5 889.44 299.07 871.27"/><polygon class="c" points="228.69 824.41 1739.63 224.97 1761.5 2377.97 151.5 1778.32 151.5 844.6 228.69 824.41"/><polygon class="c" points="159.98 773.79 1813.57 106.97 1837.5 2501.97 75.5 1834.92 75.5 796.25 159.98 773.79"/><polygon class="c" points="101.46 733.69 1901.45 13.97 1927.5 2598.97 9.5 1879 9.5 757.93 101.46 733.69"/><polygon class="c" points="746.27 1199.96 1192.05 1062.97 1198.5 1554.97 723.5 1417.94 723.5 1204.57 746.27 1199.96"/><polygon class="c" points="792.05 1233.07 1135.53 1143.97 1140.5 1463.97 774.5 1374.85 774.5 1236.07 792.05 1233.07"/><g id="b"><g><path d="M814.68,1254.43l13.92-2.25,9.8,48.22c1.25,6.61,2.34,13.83,3.61,20.82h.39c1.28-6.94,2.36-14.24,3.65-21l10.46-52.55,17.67-2.86v123.2l-14.86-2.21v-43.52c0-11.56,1.27-28.87,2.02-40.43l-.43,.03-5.66,28.16-9.38,43.8-7.94-.97-8.56-42.91-4.65-25.53-.35,.02c.61,10.4,1.66,26.11,1.66,36.66v39.72l-11.36-1.69v-104.72Z"/><path d="M892.21,1311v-69.11l19.4-3.14v75.46c0,26.4,5.61,36.05,16.17,37.04,11.13,1.05,17.8-8.17,17.8-36.63v-81.37l23.92-3.87v81.99c0,51.3-15.25,71.27-41.72,67.18-23.68-3.66-35.57-24.31-35.57-67.55Z"/><path d="M1019.26,1303.01l-34.09-76.15,32.95-5.33,12.39,30.47c3.31,7.61,6.49,16.27,10.81,26.96l.93-.05c3.53-11.28,6.77-20.64,9.91-29.14l12.77-35.82,42.55-6.88-45.63,97.4,48.75,98.72-44.72-6.65-15.84-38.62c-3.89-9.45-7.43-18.76-11.47-29.67l-.92-.03c-3.51,10.49-6.82,19.18-10.1,27.78l-13.18,32.87-31.21-4.64,36.1-81.22Z"/></g></g></svg>